<svg width="339" height="47" viewBox="0 0 339 47" fill="none" xmlns="http://www.w3.org/2000/svg">
<path d="M0.0399995 23.336L12.232 15.992L14.008 18.92L1.768 26.216L0.0399995 23.336ZM11.656 35V0.727998H32.008V4.52H15.976V15.224H21.064C24.488 15.224 27.144 15.656 29.032 16.52C30.92 17.352 32.232 18.504 32.968 19.976C33.704 21.416 34.072 23.08 34.072 24.968C34.072 28.104 33.128 30.568 31.24 32.36C29.352 34.12 26.168 35 21.688 35H11.656ZM15.976 31.304H21.256C24.328 31.304 26.488 30.792 27.736 29.768C28.984 28.712 29.608 27.112 29.608 24.968C29.608 22.76 28.92 21.208 27.544 20.312C26.168 19.416 23.832 18.968 20.536 18.968H15.976V31.304ZM84.415 23.336L96.607 15.992L98.383 18.92L86.143 26.216L84.415 23.336ZM96.031 35V0.727998H121.759V35H117.487V4.52H100.351V35H96.031ZM197.243 23.336L209.435 15.992L211.211 18.92L198.971 26.216L197.243 23.336ZM228.203 0.727998V4.568H213.179V35H208.859V0.727998H228.203Z" fill="#14BF98"/>
<path d="M29.5712 23.336L41.7633 15.992L43.5393 18.92L31.2992 26.216L29.5712 23.336ZM50.5473 8.792C52.7553 8.792 54.6433 9.272 56.2113 10.232C57.8113 11.192 59.0273 12.552 59.8593 14.312C60.7233 16.04 61.1553 18.072 61.1553 20.408V22.952H43.5393C43.6033 25.864 44.3393 28.088 45.7473 29.624C47.1873 31.128 49.1873 31.88 51.7473 31.88C53.3793 31.88 54.8193 31.736 56.0673 31.448C57.3473 31.128 58.6593 30.68 60.0033 30.104V33.8C58.6913 34.376 57.3953 34.792 56.1153 35.048C54.8353 35.336 53.3153 35.48 51.5553 35.48C49.1233 35.48 46.9633 34.984 45.0753 33.992C43.2193 33 41.7633 31.528 40.7073 29.576C39.6833 27.592 39.1713 25.176 39.1713 22.328C39.1713 19.512 39.6353 17.096 40.5633 15.08C41.5233 13.064 42.8513 11.512 44.5473 10.424C46.2753 9.336 48.2753 8.792 50.5473 8.792ZM50.4993 12.248C48.4833 12.248 46.8833 12.904 45.6993 14.216C44.5473 15.496 43.8593 17.288 43.6353 19.592H56.7393C56.7073 17.416 56.1953 15.656 55.2033 14.312C54.2113 12.936 52.6433 12.248 50.4993 12.248ZM56.665 23.336L68.857 15.992L70.633 18.92L58.393 26.216L56.665 23.336ZM87.289 35H83.017V12.776H75.433C75.017 18.184 74.441 22.552 73.705 25.88C72.969 29.176 71.993 31.576 70.777 33.08C69.561 34.584 68.025 35.336 66.169 35.336C65.753 35.336 65.337 35.304 64.921 35.24C64.537 35.208 64.217 35.128 63.961 35V31.832C64.153 31.896 64.361 31.944 64.585 31.976C64.809 32.008 65.033 32.024 65.257 32.024C66.985 32.024 68.361 30.184 69.385 26.504C70.441 22.824 71.241 17.08 71.785 9.272H87.289V35ZM119.524 23.336L131.716 15.992L133.492 18.92L121.252 26.216L119.524 23.336ZM150.148 35H145.876V12.776H138.292C137.876 18.184 137.3 22.552 136.564 25.88C135.828 29.176 134.852 31.576 133.636 33.08C132.42 34.584 130.884 35.336 129.028 35.336C128.612 35.336 128.196 35.304 127.78 35.24C127.396 35.208 127.076 35.128 126.82 35V31.832C127.012 31.896 127.22 31.944 127.444 31.976C127.668 32.008 127.892 32.024 128.116 32.024C129.844 32.024 131.22 30.184 132.244 26.504C133.3 22.824 134.1 17.08 134.644 9.272H150.148V35ZM147.274 23.336L159.466 15.992L161.242 18.92L149.002 26.216L147.274 23.336ZM168.058 8.84C171.194 8.84 173.514 9.528 175.018 10.904C176.522 12.28 177.274 14.472 177.274 17.48V35H174.202L173.386 31.352H173.194C172.074 32.76 170.89 33.8 169.642 34.472C168.426 35.144 166.73 35.48 164.554 35.48C162.218 35.48 160.282 34.872 158.746 33.656C157.21 32.408 156.442 30.472 156.442 27.848C156.442 25.288 157.45 23.32 159.466 21.944C161.482 20.536 164.586 19.768 168.778 19.64L173.146 19.496V17.96C173.146 15.816 172.682 14.328 171.754 13.496C170.826 12.664 169.514 12.248 167.818 12.248C166.474 12.248 165.194 12.456 163.978 12.872C162.762 13.256 161.626 13.704 160.57 14.216L159.274 11.048C160.394 10.44 161.722 9.928 163.258 9.512C164.794 9.064 166.394 8.84 168.058 8.84ZM173.098 22.424L169.306 22.568C166.106 22.696 163.882 23.208 162.634 24.104C161.418 25 160.81 26.264 160.81 27.896C160.81 29.336 161.242 30.392 162.106 31.064C163.002 31.736 164.138 32.072 165.514 32.072C167.69 32.072 169.498 31.48 170.938 30.296C172.378 29.08 173.098 27.224 173.098 24.728V22.424ZM174.181 23.336L186.373 15.992L188.149 18.92L175.909 26.216L174.181 23.336ZM195.541 35.48C193.269 35.48 191.237 35.016 189.445 34.088C187.685 33.16 186.293 31.72 185.269 29.768C184.277 27.816 183.781 25.32 183.781 22.28C183.781 19.112 184.309 16.536 185.365 14.552C186.421 12.568 187.845 11.112 189.637 10.184C191.461 9.256 193.525 8.792 195.829 8.792C197.141 8.792 198.405 8.936 199.621 9.224C200.837 9.48 201.829 9.8 202.597 10.184L201.301 13.688C200.533 13.4 199.637 13.128 198.613 12.872C197.589 12.616 196.629 12.488 195.733 12.488C190.677 12.488 188.149 15.736 188.149 22.232C188.149 25.336 188.757 27.72 189.973 29.384C191.221 31.016 193.061 31.832 195.493 31.832C196.901 31.832 198.133 31.688 199.189 31.4C200.277 31.112 201.269 30.76 202.165 30.344V34.088C201.301 34.536 200.341 34.872 199.285 35.096C198.261 35.352 197.013 35.48 195.541 35.48ZM222.415 23.336L234.607 15.992L236.383 18.92L224.143 26.216L222.415 23.336ZM245.695 8.792C248.863 8.792 251.407 9.896 253.327 12.104C255.279 14.312 256.255 17.64 256.255 22.088C256.255 26.472 255.279 29.8 253.327 32.072C251.407 34.344 248.847 35.48 245.647 35.48C243.663 35.48 242.015 35.112 240.703 34.376C239.423 33.608 238.415 32.728 237.679 31.736H237.391C237.455 32.28 237.519 32.968 237.583 33.8C237.647 34.632 237.679 35.352 237.679 35.96V46.52H233.455V9.272H236.911L237.487 12.776H237.679C238.447 11.656 239.455 10.712 240.703 9.944C241.951 9.176 243.615 8.792 245.695 8.792ZM244.927 12.344C242.303 12.344 240.447 13.08 239.359 14.552C238.303 16.024 237.743 18.264 237.679 21.272V22.088C237.679 25.256 238.191 27.704 239.215 29.432C240.271 31.128 242.207 31.976 245.023 31.976C246.591 31.976 247.871 31.544 248.863 30.68C249.887 29.816 250.639 28.648 251.119 27.176C251.631 25.672 251.887 23.96 251.887 22.04C251.887 19.096 251.311 16.744 250.159 14.984C249.039 13.224 247.295 12.344 244.927 12.344ZM251.477 23.336L263.67 15.992L265.446 18.92L253.205 26.216L251.477 23.336ZM258.486 9.272H262.998L268.566 23.912C269.046 25.192 269.478 26.424 269.862 27.608C270.246 28.76 270.534 29.864 270.726 30.92H270.918C271.11 30.12 271.414 29.08 271.83 27.8C272.246 26.488 272.678 25.176 273.126 23.864L278.358 9.272H282.918L271.83 38.552C270.934 40.984 269.766 42.92 268.326 44.36C266.918 45.8 264.966 46.52 262.47 46.52C261.702 46.52 261.03 46.472 260.454 46.376C259.878 46.312 259.382 46.232 258.966 46.136V42.776C259.318 42.84 259.734 42.904 260.214 42.968C260.726 43.032 261.254 43.064 261.798 43.064C263.27 43.064 264.454 42.648 265.35 41.816C266.278 40.984 266.998 39.88 267.51 38.504L268.854 35.096L258.486 9.272ZM275.946 23.336L288.138 15.992L289.914 18.92L277.674 26.216L275.946 23.336ZM308.73 9.272V35H304.506V12.872H291.21V35H286.986V9.272H308.73ZM305.899 23.336L318.091 15.992L319.867 18.92L307.627 26.216L305.899 23.336ZM338.683 9.272V35H334.459V12.872H321.163V35H316.939V9.272H338.683Z" fill="white"/>
</svg>
